<svg xmlns="http://www.w3.org/2000/svg" viewBox="0 0 236.398 30">
  <defs>
    <style>
      .cls-1, .cls-2 {
        fill: #fff;
      }

      .cls-2 {
        fill-rule: evenodd;
      }

      .cls-3 {
        fill: #ffcd34;
      }
    </style>
  </defs>
  <g id="Symbol_13_1" data-name="Symbol 13 – 1" transform="translate(-525.047 1426)">
    <g id="Group_7165" data-name="Group 7165" transform="translate(525.047 -1426)">
      <g id="Group_7138" data-name="Group 7138" transform="translate(212.832 15.659)">
        <path id="Path_16931" data-name="Path 16931" class="cls-1" d="M838.243,526.229a.311.311,0,0,1-.233.543h-3.1a.274.274,0,0,1-.31-.31V521.81a.274.274,0,0,1,.31-.31h3.1a.311.311,0,1,1,0,.62H835.3v1.628h1.938a.311.311,0,1,1,0,.62H835.3v1.705h2.713C838.088,526.151,838.166,526.151,838.243,526.229Z" transform="translate(-834.6 -521.5)"/>
        <path id="Path_16932" data-name="Path 16932" class="cls-1" d="M840.133,521.578a.311.311,0,0,1,.543.233v3.178a.88.88,0,0,0,.233.62,3.369,3.369,0,0,0,.543.465,2.015,2.015,0,0,0,1.55,0,1.042,1.042,0,0,0,.543-.465.835.835,0,0,0,.155-.62V521.81a.311.311,0,1,1,.62,0v3.178a1.558,1.558,0,0,1-.31,1.008,1.7,1.7,0,0,1-.775.7,2.476,2.476,0,0,1-1.085.233,2.589,2.589,0,0,1-1.163-.233,1.7,1.7,0,0,1-.775-.7,2.2,2.2,0,0,1-.31-1.008V521.81C839.977,521.733,840.055,521.578,840.133,521.578Z" transform="translate(-835.791 -521.5)"/>
      </g>
      <g id="Group_7143" data-name="Group 7143">
        <g id="Group_7140" data-name="Group 7140">
          <g id="Group_7139" data-name="Group 7139" transform="translate(44.072 3.256)">
            <path id="Path_16933" data-name="Path 16933" class="cls-1" d="M810.8,517.273a7.184,7.184,0,0,1,4.884-1.473,8.293,8.293,0,0,1,3.333.7,9.763,9.763,0,0,1,2.791,1.86,8.8,8.8,0,0,1,1.86,2.791,8.391,8.391,0,0,1,.7,3.411v8.217a1.542,1.542,0,0,1-.543,1.24,2,2,0,0,1-1.24.543,1.542,1.542,0,0,1-1.24-.543,1.829,1.829,0,0,1-.543-1.24v-8.295a5.823,5.823,0,0,0-.388-2.016,5.974,5.974,0,0,0-1.085-1.628,4.619,4.619,0,0,0-1.628-1.085,4.46,4.46,0,0,0-2.016-.388,5.823,5.823,0,0,0-2.016.388,5.974,5.974,0,0,0-1.628,1.085,4.619,4.619,0,0,0-1.085,1.628,4.459,4.459,0,0,0-.388,2.016V532.7a1.542,1.542,0,0,1-.543,1.24,2,2,0,0,1-1.24.543,1.542,1.542,0,0,1-1.24-.543A2,2,0,0,1,807,532.7V517.66a2.2,2.2,0,0,1,.543-1.318,1.542,1.542,0,0,1,1.24-.543,1.651,1.651,0,0,1,1.24.543A9.848,9.848,0,0,1,810.8,517.273Z" transform="translate(-659.636 -507.815)"/>
            <path id="Path_16934" data-name="Path 16934" class="cls-1" d="M764.216,521.016a6.014,6.014,0,0,1,1.86-1.24,5.561,5.561,0,0,1,2.248-.465,5.823,5.823,0,0,1,2.015.388,7.333,7.333,0,0,1,1.783,1.085,1.852,1.852,0,0,0,1.085.388,1.707,1.707,0,0,0,1.085-3.023,8.791,8.791,0,0,0-5.969-2.248,9.225,9.225,0,0,0,0,18.45,8.791,8.791,0,0,0,5.969-2.248,1.652,1.652,0,0,0,.543-1.24,1.76,1.76,0,0,0-.465-1.24,1.636,1.636,0,0,0-1.24-.465,1.852,1.852,0,0,0-1.085.388,5.772,5.772,0,0,1-1.705,1.085,5.49,5.49,0,0,1-2.015.388,5.561,5.561,0,0,1-2.248-.465,5.7,5.7,0,0,1-3.1-3.1,5.666,5.666,0,0,1,0-4.5A4.416,4.416,0,0,1,764.216,521.016Z" transform="translate(-648.867 -507.838)"/>
            <path id="Path_16935" data-name="Path 16935" class="cls-1" d="M658.836,518.513a9.209,9.209,0,1,0-6.512,15.736,9.155,9.155,0,0,0,6.512-2.713,8.9,8.9,0,0,0,2.713-6.512,9.14,9.14,0,0,0-.7-3.566A11.732,11.732,0,0,0,658.836,518.513Zm-1.24,8.837a5.7,5.7,0,0,1-3.1,3.1,5.666,5.666,0,0,1-4.5,0,4.917,4.917,0,0,1-1.783-1.24,6.014,6.014,0,0,1-1.24-1.86,5.666,5.666,0,0,1,0-4.5,6.016,6.016,0,0,1,1.24-1.86,5.678,5.678,0,0,1,1.783-1.24,5.665,5.665,0,0,1,4.5,0,5.7,5.7,0,0,1,3.1,3.1,5.665,5.665,0,0,1,0,4.5Z" transform="translate(-622.79 -507.815)"/>
            <path id="Path_16936" data-name="Path 16936" class="cls-1" d="M633.567,505.6a1.76,1.76,0,0,0-1.24.465,1.637,1.637,0,0,0-.465,1.24v8.217a9.212,9.212,0,1,0-5.736,16.434,9.155,9.155,0,0,0,6.512-2.713,8.9,8.9,0,0,0,2.713-6.512v-15.5a1.76,1.76,0,0,0-.465-1.24A1.792,1.792,0,0,0,633.567,505.6Zm-2.093,19.457a5.7,5.7,0,0,1-3.1,3.1,5.665,5.665,0,0,1-4.5,0,4.917,4.917,0,0,1-1.783-1.24,6.014,6.014,0,0,1-1.24-1.86,5.666,5.666,0,0,1,0-4.5,6.015,6.015,0,0,1,1.24-1.86,5.679,5.679,0,0,1,1.783-1.24,5.666,5.666,0,0,1,4.5,0,5.7,5.7,0,0,1,3.1,3.1,5.56,5.56,0,0,1,.465,2.248A10.513,10.513,0,0,1,631.474,525.057Z" transform="translate(-616.9 -505.522)"/>
            <path id="Path_16937" data-name="Path 16937" class="cls-1" d="M754.621,518.823a2.263,2.263,0,0,0,.155-.7,1.578,1.578,0,0,0-.465-1.163,2.92,2.92,0,0,0-1.163-.7,9.065,9.065,0,0,0-1.55-.388,10.917,10.917,0,0,0-1.55-.078,8.433,8.433,0,0,0-3.1.543,9.075,9.075,0,0,0-2.636,1.55v-.31a1.9,1.9,0,0,0-.465-1.24,1.687,1.687,0,0,0-1.24-.543,1.651,1.651,0,0,0-1.24.543,1.76,1.76,0,0,0-.465,1.24v15.039a1.9,1.9,0,0,0,.465,1.24,1.829,1.829,0,0,0,1.24.543,1.652,1.652,0,0,0,1.24-.543,1.761,1.761,0,0,0,.465-1.24V525.1a5.561,5.561,0,0,1,.465-2.248,5.7,5.7,0,0,1,3.1-3.1,5.56,5.56,0,0,1,2.248-.465,7.2,7.2,0,0,1,2.248.388,1.416,1.416,0,0,0,.7.155,2.265,2.265,0,0,0,.7-.155,1.39,1.39,0,0,0,.543-.388A.712.712,0,0,0,754.621,518.823Z" transform="translate(-644.776 -507.815)"/>
            <path id="Path_16938" data-name="Path 16938" class="cls-1" d="M730.536,518.513a9.209,9.209,0,1,0-6.512,15.736A8.791,8.791,0,0,0,729.994,532a1.886,1.886,0,0,0,0-2.481,1.637,1.637,0,0,0-1.24-.465,1.862,1.862,0,0,0-1.163.465,5.308,5.308,0,0,1-3.721,1.318,5.211,5.211,0,0,1-1.86-.31,6.528,6.528,0,0,1-1.628-.853,5.022,5.022,0,0,1-1.24-1.318,6.528,6.528,0,0,1-.853-1.628h12.946a1.9,1.9,0,0,0,1.24-.465,1.637,1.637,0,0,0,.465-1.24,9.14,9.14,0,0,0-.7-3.566A6.108,6.108,0,0,0,730.536,518.513ZM718.521,523.4a5.277,5.277,0,0,1,.775-1.628,9.979,9.979,0,0,1,1.24-1.318,5.413,5.413,0,0,1,1.628-.853,4.806,4.806,0,0,1,1.783-.31,4.547,4.547,0,0,1,1.783.31,6.525,6.525,0,0,1,1.628.853,5.021,5.021,0,0,1,1.24,1.318,6.527,6.527,0,0,1,.853,1.628Z" transform="translate(-638.909 -507.815)"/>
            <path id="Path_16939" data-name="Path 16939" class="cls-1" d="M796.436,518.513a9.209,9.209,0,1,0-6.512,15.736,9.155,9.155,0,0,0,6.512-2.713,8.9,8.9,0,0,0,2.713-6.512,9.139,9.139,0,0,0-.7-3.566A11.734,11.734,0,0,0,796.436,518.513Zm-1.163,8.837a5.7,5.7,0,0,1-3.1,3.1,5.666,5.666,0,0,1-4.5,0,4.916,4.916,0,0,1-1.783-1.24,6.013,6.013,0,0,1-1.24-1.86,5.666,5.666,0,0,1,0-4.5,6.017,6.017,0,0,1,1.24-1.86,5.676,5.676,0,0,1,1.783-1.24,5.665,5.665,0,0,1,4.5,0,5.7,5.7,0,0,1,3.1,3.1,5.561,5.561,0,0,1,.465,2.248A10.516,10.516,0,0,1,795.274,527.35Z" transform="translate(-653.723 -507.815)"/>
            <path id="Path_16940" data-name="Path 16940" class="cls-1" d="M707.891,515.267a2.264,2.264,0,0,0-.155-.7,2.027,2.027,0,0,0-.93-.93,2.263,2.263,0,0,0-.7-.155,2.065,2.065,0,0,0-.93.233l-9.767,6.434V507.283a1.761,1.761,0,0,0-.465-1.24,1.687,1.687,0,0,0-1.24-.543,1.651,1.651,0,0,0-1.24.543,1.76,1.76,0,0,0-.465,1.24v22.946a1.9,1.9,0,0,0,.465,1.24,1.829,1.829,0,0,0,1.24.543,1.652,1.652,0,0,0,1.24-.543,1.761,1.761,0,0,0,.465-1.24V524.26l2.015-1.318,7.6,8.6a1.578,1.578,0,0,0,1.163.465,2.263,2.263,0,0,0,.7-.155,2.028,2.028,0,0,0,.93-.93,2.264,2.264,0,0,0,.155-.7,1.9,1.9,0,0,0-.465-1.24L700.45,521l6.822-4.5A1.408,1.408,0,0,0,707.891,515.267Z" transform="translate(-633.783 -505.5)"/>
            <path id="Path_16941" data-name="Path 16941" class="cls-1" d="M674.416,521.016a6.014,6.014,0,0,1,1.86-1.24,5.561,5.561,0,0,1,2.248-.465,5.823,5.823,0,0,1,2.016.388,7.333,7.333,0,0,1,1.783,1.085,1.852,1.852,0,0,0,1.085.388,1.707,1.707,0,0,0,1.085-3.023,8.791,8.791,0,0,0-5.969-2.248,9.225,9.225,0,0,0,0,18.45,8.791,8.791,0,0,0,5.969-2.248,1.651,1.651,0,0,0,.543-1.24,1.76,1.76,0,0,0-.465-1.24,1.636,1.636,0,0,0-1.24-.465,1.852,1.852,0,0,0-1.085.388,5.772,5.772,0,0,1-1.705,1.085,5.49,5.49,0,0,1-2.016.388,5.561,5.561,0,0,1-2.248-.465,5.7,5.7,0,0,1-3.1-3.1,5.666,5.666,0,0,1,0-4.5A3.832,3.832,0,0,1,674.416,521.016Z" transform="translate(-628.68 -507.838)"/>
          </g>
          <path id="Path_16942" data-name="Path 16942" class="cls-2" d="M584.352,515.021h4.419V510.99h-4.419v4.031Zm-5.271,0H583.5V510.99H579.08v4.031Zm-5.271,0h4.419V510.99h-4.419v4.031Zm-5.194,0h4.419V510.99h-4.419v4.031Zm-5.271,0h4.419V510.99h-4.419v4.031Zm5.271-4.884h4.419v-4.031h-4.419v4.031Zm5.194,0h4.419v-4.031h-4.419v4.031Zm5.271,0H583.5v-4.031H579.08v4.031Zm0-4.806H583.5V501.3H579.08v4.031Zm23.023,7.287a8.078,8.078,0,0,0-4.884-.543,6.235,6.235,0,0,0-2.791-4.264l-.93-.62-.62.93a7.348,7.348,0,0,0-1.085,4.5,5.857,5.857,0,0,0,.853,2.481,6.331,6.331,0,0,1-3.256.7H560.243l-.077.31a14.194,14.194,0,0,0,3.023,10.543c2.481,2.946,6.2,4.419,11.085,4.419,10.543,0,18.372-4.884,22.016-13.721,1.473,0,4.574,0,6.124-3.023a2.828,2.828,0,0,0,.388-.853l.155-.31-.853-.543Z" transform="translate(-560.047 -501.3)"/>
        </g>
        <g id="Group_7142" data-name="Group 7142" transform="translate(210.584 5.194)">
          <path id="Path_16943" data-name="Path 16943" class="cls-3" d="M859.966,521.411a6.94,6.94,0,0,1,.853,3.566,8.178,8.178,0,0,1-.93,3.876,6.976,6.976,0,0,1-6.2,3.721,7.072,7.072,0,0,1-3.721-1.008,7.387,7.387,0,0,1-2.636-2.713,8.054,8.054,0,0,1-.078-7.364,6.558,6.558,0,0,1,2.481-2.558,6.077,6.077,0,0,1-1.705-2.016,6.26,6.26,0,0,1-.62-2.636,5.6,5.6,0,0,1,.853-3.178,6.253,6.253,0,0,1,5.426-3.1,5.949,5.949,0,0,1,3.1.775,5.832,5.832,0,0,1,2.171,2.171,6.233,6.233,0,0,1,.775,3.178,6.336,6.336,0,0,1-.62,2.713,5.4,5.4,0,0,1-1.705,2.016A6.744,6.744,0,0,1,859.966,521.411Zm-3.333.543a3.7,3.7,0,0,0-2.946-1.24,3.813,3.813,0,0,0-2.946,1.24,4.593,4.593,0,0,0-1.163,3.178,4.682,4.682,0,0,0,.543,2.326,4.29,4.29,0,0,0,1.473,1.628,3.842,3.842,0,0,0,4.186,0,4.538,4.538,0,0,0,1.473-1.705,4.785,4.785,0,0,0,.543-2.4A4.215,4.215,0,0,0,856.633,521.953Zm-5.116-5.349a3.014,3.014,0,0,0,2.171,1.008,2.644,2.644,0,0,0,2.171-1.008,3.464,3.464,0,0,0,.853-2.481,3.1,3.1,0,0,0-.853-2.248,2.933,2.933,0,0,0-2.171-.93,2.982,2.982,0,0,0-2.248.93,3.1,3.1,0,0,0-.853,2.326A3.466,3.466,0,0,0,851.516,516.6Z" transform="translate(-835.005 -508)"/>
          <g id="Group_7141" data-name="Group 7141" transform="translate(0 0.078)">
            <path id="Path_16944" data-name="Path 16944" class="cls-3" d="M838.1,530.2v5.814a1.578,1.578,0,0,0,.465,1.163,1.53,1.53,0,0,0,1.085.465,1.59,1.59,0,0,0,1.628-1.628V530.2Z" transform="translate(-833.139 -513.068)"/>
            <path id="Path_16945" data-name="Path 16945" class="cls-3" d="M833.328,513.139a2.675,2.675,0,0,0,1.008-.233l2.326-1.008v5.194h3.178v-7.364a1.59,1.59,0,0,0-1.628-1.628,3.486,3.486,0,0,0-.62.155l-4.884,1.783a1.279,1.279,0,0,0-.775.62,1.653,1.653,0,0,0-.233.93,1.578,1.578,0,0,0,.465,1.163A1.9,1.9,0,0,0,833.328,513.139Z" transform="translate(-831.7 -508.1)"/>
          </g>
        </g>
      </g>
    </g>
  </g>
</svg>
